<?xml version="1.0" encoding="UTF-8" standalone="no"?>
<svg
   xmlns="http://www.w3.org/2000/svg"
   version="1.0"
   viewBox="65 -2 95 42"
   width="1024"
   height="1024">
  <path
     d="M 290.32456,782.16584 L 306.12956,779.09084 L 303.64956,781.57959 L 319.88581,778.60334 L 303.50456,793.91084 L 306.98581,793.71959 L 298.47706,802.34084 L 316.23831,800.06459 L 313.81831,801.70709 L 338.42331,798.06084 L 337.08206,799.32584 C 353.45581,797.31834 359.55581,798.08209 359.55581,798.08209 C 359.55581,798.08209 346.40581,799.00459 329.40831,803.58209 L 331.18831,801.88084 C 321.22081,803.54334 312.87456,805.44709 304.26206,807.79084 L 306.84206,805.61084 C 296.36581,808.04084 279.47456,812.78959 267.01456,817.54959 L 292.01581,798.66459 L 286.12581,799.60834 L 301.93206,787.50334 L 291.69081,788.97709 L 293.11456,786.88209 L 281.88706,788.96584 L 290.90081,778.86959 L 290.32456,782.16584 z"
     transform="translate(-200.44419,-778.60334)"
     style="fill:#e02433;fill-opacity:1;fill-rule:nonzero;stroke:none" />
</svg>
